<svg width="512" height="512" viewBox="0 0 512 512" fill="none" xmlns="http://www.w3.org/2000/svg">
<g clip-path="url(#clip0)">
<path d="M490.922 213.907L484.336 208.981C476.133 202.84 473.223 191.973 477.254 182.555L480.496 174.997C487.082 159.618 486.063 142.489 477.699 128.005C469.332 113.517 455.012 104.068 438.399 102.087L430.235 101.111C420.059 99.8957 412.102 91.9388 410.887 81.767L409.915 73.5991C407.93 56.9898 398.481 42.6657 383.997 34.3025C369.509 25.9354 352.38 24.9159 337.005 31.5056L329.443 34.7439C320.025 38.779 309.158 35.865 303.017 27.6619L298.091 21.0799C288.068 7.68552 272.728 0.00588989 255.998 0.00588989C239.268 0.00588989 223.928 7.68552 213.905 21.0799L208.975 27.6619C202.834 35.8689 191.971 38.779 182.549 34.7439L174.991 31.5056C159.612 24.9198 142.483 25.9354 127.999 34.3025C113.511 42.6657 104.062 56.9898 102.081 73.5991L101.105 81.7631C99.8898 91.9388 91.9329 99.8957 81.7572 101.111L73.5932 102.087C56.9839 104.068 42.6598 113.517 34.2966 128.005C25.9295 142.489 24.9139 159.618 31.4998 174.997L34.738 182.555C38.7731 191.973 35.8591 202.84 27.656 208.981L21.0741 213.907C7.68353 223.93 0 239.274 0 256C0 272.73 7.68353 288.074 21.0741 298.097L27.6599 303.023C35.863 309.164 38.7731 320.031 34.7419 329.449L31.4998 337.007C24.9139 352.386 25.9334 369.515 34.2966 383.999C42.6637 398.487 56.9839 407.936 73.5971 409.917L81.7611 410.893C91.9368 412.108 99.8938 420.065 101.109 430.237L102.081 438.405C104.066 455.014 113.515 469.338 127.999 477.701C142.487 486.065 159.616 487.084 174.991 480.498L182.553 477.26C191.971 473.225 202.838 476.139 208.979 484.342L213.905 490.924C223.928 504.318 239.272 512.002 256.002 512.002C272.728 512.002 288.072 504.318 298.095 490.924L303.021 484.342C309.162 476.139 320.025 473.225 329.451 477.264L337.009 480.498C352.384 487.084 369.513 486.069 384.001 477.705C398.485 469.338 407.934 455.014 409.919 438.405L410.891 430.241C412.106 420.065 420.063 412.108 430.239 410.893L438.403 409.921C455.012 407.936 469.34 398.487 477.703 384.003C486.067 369.515 487.086 352.386 480.496 337.007L477.262 329.453C473.227 320.031 476.137 309.164 484.344 303.023L490.926 298.097C504.32 288.074 512 272.73 512 256.004C511.996 239.274 504.312 223.93 490.922 213.907ZM478.938 282.086L472.356 287.011C456.735 298.699 451.188 319.39 458.875 337.327L462.11 344.882C466.192 354.409 465.559 365.023 460.379 373.999C455.196 382.979 446.321 388.831 436.028 390.061L427.864 391.034C408.489 393.347 393.345 408.495 391.032 427.87L390.056 436.034C388.825 446.327 382.974 455.202 373.997 460.385C365.021 465.565 354.407 466.198 344.88 462.116L337.322 458.877C319.384 451.194 298.697 456.741 287.006 472.362L282.08 478.944C275.869 487.24 266.361 492.002 255.998 492.002C245.631 492.002 236.123 487.24 229.912 478.944L224.987 472.362C216.819 461.444 204.256 455.448 191.311 455.448C185.729 455.448 180.077 456.565 174.674 458.877L167.116 462.116C157.585 466.198 146.975 465.565 137.995 460.385C129.019 455.202 123.167 446.327 121.937 436.034L120.964 427.87C118.648 408.495 103.503 393.35 84.1283 391.038L75.9642 390.061C65.6714 388.831 56.7964 382.979 51.6129 374.003C46.4332 365.026 45.8004 354.413 49.8824 344.886L53.1207 337.327C60.8042 319.394 55.2574 298.703 39.6403 287.011L33.0544 282.086C24.7576 275.875 19.9998 266.367 19.9998 256C19.9998 245.637 24.7576 236.129 33.0583 229.918L39.6403 224.992C55.2613 213.301 60.8081 192.61 53.1207 174.676L49.8863 167.118C45.8043 157.591 46.4371 146.977 51.6168 138.001C56.8003 129.024 65.6753 123.173 75.9682 121.942L84.1322 120.966C103.507 118.653 118.651 103.509 120.964 84.1341L121.94 75.9701C123.171 65.6773 129.022 56.8023 137.999 51.6188C146.975 46.4352 157.589 45.8063 167.116 49.8883L174.674 53.1227C192.608 60.8062 213.299 55.2633 224.99 39.6423L229.916 33.0603C236.127 24.7635 245.635 20.0018 255.998 20.0018C266.361 20.0018 275.869 24.7635 282.08 33.0603L287.009 39.6462C298.697 55.2672 319.392 60.8101 337.322 53.1266L344.88 49.8883C354.407 45.8063 365.021 46.4391 373.997 51.6188C382.974 56.8023 388.829 65.6773 390.056 75.9701L391.032 84.1341C393.345 103.509 408.493 118.653 427.864 120.966L436.028 121.942C446.321 123.173 455.196 129.024 460.379 138.001C465.563 146.977 466.192 157.591 462.114 167.118L458.875 174.676C451.192 192.614 456.735 213.301 472.356 224.992L478.938 229.918C487.238 236.129 491.996 245.637 491.996 256.004C491.996 266.367 487.238 275.875 478.938 282.086Z" fill="#6C63FF"/>
<path d="M255.998 58.1227C225.83 58.1227 196.862 64.7398 169.901 77.7905C164.928 80.1967 162.85 86.1771 165.253 91.1458C167.659 96.1184 173.643 98.1966 178.612 95.7903C202.834 84.0678 228.869 78.1225 255.998 78.1225C354.079 78.1225 433.876 157.919 433.876 256.004C433.876 354.085 354.079 433.881 255.998 433.881C157.913 433.881 78.1166 354.085 78.1166 256.004C78.1166 215.828 91.1829 177.922 115.905 146.38C119.312 142.032 118.55 135.747 114.202 132.337C109.855 128.931 103.569 129.696 100.163 134.04C72.6596 169.141 58.1206 211.313 58.1206 256.004C58.1206 365.112 146.889 453.881 255.998 453.881C365.107 453.881 453.875 365.112 453.875 256.004C453.875 146.891 365.107 58.1227 255.998 58.1227Z" fill="#6C63FF"/>
<path d="M109.789 205.086L102.172 214.797C98.7617 219.145 99.5234 225.43 103.867 228.836C108.215 232.246 114.5 231.488 117.906 227.141L122.09 221.812V287.949H115.395C109.871 287.949 105.395 292.426 105.395 297.949C105.395 303.473 109.871 307.949 115.395 307.949H148.441C153.961 307.949 158.441 303.473 158.441 297.949C158.441 292.426 153.961 287.949 148.441 287.949H142.09V211.258C142.09 205.734 137.609 201.258 132.09 201.258H117.656C114.586 201.258 111.684 202.668 109.789 205.086Z" fill="#6C63FF"/>
<path d="M190.147 307.95H195.342C211.858 307.95 225.292 294.516 225.292 278V229.528C225.292 213.012 211.854 199.575 195.342 199.575H190.147C173.632 199.575 160.198 213.012 160.198 229.528V278C160.198 294.516 173.632 307.95 190.147 307.95ZM180.198 229.528C180.198 224.04 184.663 219.575 190.147 219.575H195.342C200.827 219.575 205.292 224.04 205.292 229.528V278C205.292 283.485 200.827 287.95 195.342 287.95H190.147C184.663 287.95 180.198 283.485 180.198 278V229.528Z" fill="#6C63FF"/>
<path d="M270.736 307.95C287.252 307.95 300.686 294.516 300.686 278V229.528C300.686 213.012 287.248 199.575 270.736 199.575H265.541C249.025 199.575 235.592 213.012 235.592 229.528V278C235.592 294.516 249.025 307.95 265.541 307.95H270.736ZM255.592 278V229.528C255.592 224.04 260.057 219.575 265.541 219.575H270.736C276.221 219.575 280.686 224.04 280.686 229.528V278C280.686 283.485 276.221 287.95 270.736 287.95H265.541C260.057 287.95 255.592 283.489 255.592 278Z" fill="#6C63FF"/>
<path d="M402.798 198.36C398.333 195.114 392.08 196.102 388.83 200.567L325.29 287.946C322.04 292.415 323.029 298.668 327.497 301.915C329.271 303.204 331.33 303.829 333.369 303.829C336.458 303.829 339.509 302.399 341.466 299.707L405.005 212.329C408.255 207.864 407.263 201.61 402.798 198.36Z" fill="#6C63FF"/>
<path d="M165.928 160.278C168.26 160.278 170.604 159.466 172.499 157.813C195.616 137.626 225.268 126.509 255.998 126.509C284.748 126.509 311.861 135.876 334.408 153.595C338.751 157.009 345.036 156.255 348.45 151.911C351.861 147.571 351.107 141.282 346.767 137.872C320.658 117.353 289.271 106.509 255.998 106.509C220.432 106.509 186.104 119.38 159.346 142.747C155.186 146.38 154.757 152.696 158.389 156.856C160.366 159.122 163.139 160.278 165.928 160.278Z" fill="#6C63FF"/>
<path d="M164.089 369.175C190.19 389.69 221.58 400.534 254.853 400.534C277.939 400.534 300.041 395.331 320.548 385.073C325.486 382.604 327.486 376.597 325.017 371.655C322.544 366.718 316.54 364.718 311.599 367.187C293.896 376.046 274.803 380.534 254.853 380.534C226.108 380.534 198.991 371.171 176.444 353.448C172.104 350.038 165.815 350.792 162.405 355.132C158.991 359.476 159.745 365.761 164.089 369.175Z" fill="#6C63FF"/>
<path d="M354.197 352.07C351.986 348.757 347.845 347.038 343.935 347.82C339.786 348.652 336.521 352.12 335.97 356.32C335.431 360.398 337.548 364.503 341.173 366.441C344.814 368.39 349.392 367.855 352.497 365.132C356.232 361.847 356.896 356.199 354.197 352.07Z" fill="#6C63FF"/>
<path d="M337.22 196.45C324.244 196.45 313.685 207.004 313.685 219.981C313.685 232.957 324.244 243.516 337.22 243.516C350.193 243.516 360.751 232.957 360.751 219.981C360.751 207.004 350.193 196.45 337.22 196.45ZM337.22 223.516C335.271 223.516 333.685 221.93 333.685 219.981C333.685 218.032 335.271 216.446 337.22 216.446C339.169 216.446 340.751 218.032 340.751 219.981C340.751 221.93 339.169 223.516 337.22 223.516Z" fill="#6C63FF"/>
<path d="M369.189 280.926C369.189 293.902 379.747 304.461 392.72 304.461C405.696 304.461 416.255 293.902 416.255 280.926C416.255 267.949 405.696 257.391 392.72 257.391C379.747 257.391 369.189 267.949 369.189 280.926ZM396.255 280.926C396.255 282.875 394.673 284.461 392.724 284.461C390.774 284.461 389.189 282.875 389.189 280.926C389.189 278.977 390.774 277.391 392.724 277.391C394.673 277.391 396.255 278.977 396.255 280.926Z" fill="#6C63FF"/>
<path d="M129.472 113.454C131.081 117.318 135.011 119.81 139.19 119.615C143.315 119.419 146.94 116.599 148.214 112.685C149.499 108.732 148.101 104.216 144.788 101.697C141.409 99.1262 136.69 98.9778 133.151 101.318C129.206 103.923 127.69 109.107 129.472 113.454Z" fill="#6C63FF"/>
</g>
<defs>
<clipPath id="clip0">
<rect width="512" height="512" fill="white"/>
</clipPath>
</defs>
</svg>
